<mxfile host="Electron" agent="Mozilla/5.0 (Windows NT 10.0; Win64; x64) AppleWebKit/537.36 (KHTML, like Gecko) draw.io/28.0.6 Chrome/138.0.7204.100 Electron/37.2.3 Safari/537.36" version="28.0.6" pages="3">
  <diagram name="Architecture" id="wB5BNROj0N0pgjyp5235">
    <mxGraphModel dx="1028" dy="620" grid="1" gridSize="10" guides="1" tooltips="1" connect="1" arrows="1" fold="1" page="1" pageScale="1" pageWidth="827" pageHeight="1169" background="none" math="0" shadow="0">
      <root>
        <mxCell id="0" />
        <mxCell id="1" parent="0" />
        <mxCell id="oH1ORaNsAKhIHo1-pU7s-1" value="" style="rounded=0;whiteSpace=wrap;html=1;" vertex="1" parent="1">
          <mxGeometry x="520" y="20" width="290" height="190" as="geometry" />
        </mxCell>
        <mxCell id="PXVzjfiaa9DbLTNLN0cU-1" value="" style="edgeStyle=orthogonalEdgeStyle;orthogonalLoop=1;jettySize=auto;html=1;startArrow=classic;startFill=1;" edge="1" parent="1" source="k5jfvjNepFyQK7z7Z-rK-2" target="k5jfvjNepFyQK7z7Z-rK-3">
          <mxGeometry relative="1" as="geometry" />
        </mxCell>
        <mxCell id="k5jfvjNepFyQK7z7Z-rK-2" value="MAIN" style="rounded=1;whiteSpace=wrap;html=1;fillColor=#1ba1e2;fontColor=#ffffff;strokeColor=#006EAF;" vertex="1" parent="1">
          <mxGeometry x="80" y="40" width="320" height="40" as="geometry" />
        </mxCell>
        <mxCell id="PXVzjfiaa9DbLTNLN0cU-2" style="edgeStyle=orthogonalEdgeStyle;orthogonalLoop=1;jettySize=auto;html=1;exitX=0.25;exitY=1;exitDx=0;exitDy=0;startArrow=classic;startFill=1;" edge="1" parent="1" source="k5jfvjNepFyQK7z7Z-rK-3" target="k5jfvjNepFyQK7z7Z-rK-4">
          <mxGeometry relative="1" as="geometry" />
        </mxCell>
        <mxCell id="PXVzjfiaa9DbLTNLN0cU-3" style="edgeStyle=orthogonalEdgeStyle;orthogonalLoop=1;jettySize=auto;html=1;exitX=0.5;exitY=1;exitDx=0;exitDy=0;startArrow=classic;startFill=1;" edge="1" parent="1" source="k5jfvjNepFyQK7z7Z-rK-3" target="k5jfvjNepFyQK7z7Z-rK-5">
          <mxGeometry relative="1" as="geometry" />
        </mxCell>
        <mxCell id="k5jfvjNepFyQK7z7Z-rK-3" value="EMU" style="rounded=1;whiteSpace=wrap;html=1;fillColor=#1ba1e2;fontColor=#ffffff;strokeColor=#006EAF;" vertex="1" parent="1">
          <mxGeometry x="80" y="120" width="320" height="40" as="geometry" />
        </mxCell>
        <mxCell id="PXVzjfiaa9DbLTNLN0cU-6" style="edgeStyle=orthogonalEdgeStyle;orthogonalLoop=1;jettySize=auto;html=1;exitX=0.5;exitY=1;exitDx=0;exitDy=0;entryX=0.25;entryY=0;entryDx=0;entryDy=0;startArrow=classic;startFill=1;" edge="1" parent="1" source="k5jfvjNepFyQK7z7Z-rK-4" target="k5jfvjNepFyQK7z7Z-rK-7">
          <mxGeometry relative="1" as="geometry" />
        </mxCell>
        <mxCell id="k5jfvjNepFyQK7z7Z-rK-4" value="CART" style="rounded=1;whiteSpace=wrap;html=1;fillColor=#1ba1e2;fontColor=#ffffff;strokeColor=#006EAF;" vertex="1" parent="1">
          <mxGeometry x="80" y="200" width="80" height="40" as="geometry" />
        </mxCell>
        <mxCell id="PXVzjfiaa9DbLTNLN0cU-7" style="edgeStyle=orthogonalEdgeStyle;orthogonalLoop=1;jettySize=auto;html=1;exitX=0.5;exitY=1;exitDx=0;exitDy=0;entryX=0.75;entryY=0;entryDx=0;entryDy=0;startArrow=classic;startFill=1;" edge="1" parent="1" source="k5jfvjNepFyQK7z7Z-rK-5" target="k5jfvjNepFyQK7z7Z-rK-7">
          <mxGeometry relative="1" as="geometry" />
        </mxCell>
        <mxCell id="k5jfvjNepFyQK7z7Z-rK-5" value="CPU" style="rounded=1;whiteSpace=wrap;html=1;fillColor=#1ba1e2;fontColor=#ffffff;strokeColor=#006EAF;" vertex="1" parent="1">
          <mxGeometry x="200" y="200" width="80" height="40" as="geometry" />
        </mxCell>
        <mxCell id="k5jfvjNepFyQK7z7Z-rK-6" value="UI&lt;br&gt;(TBD)" style="rounded=1;whiteSpace=wrap;html=1;fillColor=#1ba1e2;fontColor=#ffffff;strokeColor=#006EAF;" vertex="1" parent="1">
          <mxGeometry x="320" y="200" width="80" height="40" as="geometry" />
        </mxCell>
        <mxCell id="k5jfvjNepFyQK7z7Z-rK-7" value="BUS" style="rounded=1;whiteSpace=wrap;html=1;fillColor=#008a00;fontColor=#ffffff;strokeColor=#005700;" vertex="1" parent="1">
          <mxGeometry x="80" y="280" width="200" height="40" as="geometry" />
        </mxCell>
        <mxCell id="cyaLt4-ksjxbABnzyxui-4" style="edgeStyle=orthogonalEdgeStyle;orthogonalLoop=1;jettySize=auto;html=1;" edge="1" parent="1" source="k5jfvjNepFyQK7z7Z-rK-8" target="cyaLt4-ksjxbABnzyxui-2">
          <mxGeometry relative="1" as="geometry" />
        </mxCell>
        <mxCell id="k5jfvjNepFyQK7z7Z-rK-8" value="MOD" style="rounded=1;whiteSpace=wrap;html=1;fillColor=#008a00;fontColor=#ffffff;strokeColor=#005700;" vertex="1" parent="1">
          <mxGeometry x="560" y="150" width="80" height="40" as="geometry" />
        </mxCell>
        <mxCell id="cyaLt4-ksjxbABnzyxui-3" style="edgeStyle=orthogonalEdgeStyle;orthogonalLoop=1;jettySize=auto;html=1;" edge="1" parent="1" source="k5jfvjNepFyQK7z7Z-rK-9" target="cyaLt4-ksjxbABnzyxui-1">
          <mxGeometry relative="1" as="geometry" />
        </mxCell>
        <mxCell id="k5jfvjNepFyQK7z7Z-rK-9" value="MOD" style="rounded=1;whiteSpace=wrap;html=1;fillColor=#1ba1e2;fontColor=#ffffff;strokeColor=#006EAF;" vertex="1" parent="1">
          <mxGeometry x="560" y="70" width="80" height="40" as="geometry" />
        </mxCell>
        <mxCell id="cyaLt4-ksjxbABnzyxui-1" value="Platform &lt;br&gt;independant" style="text;html=1;align=right;verticalAlign=middle;resizable=0;points=[];autosize=1;strokeColor=none;fillColor=none;" vertex="1" parent="1">
          <mxGeometry x="697" y="70" width="90" height="40" as="geometry" />
        </mxCell>
        <mxCell id="cyaLt4-ksjxbABnzyxui-2" value="Platform &lt;br&gt;dependant" style="text;html=1;align=right;verticalAlign=middle;resizable=0;points=[];autosize=1;strokeColor=none;fillColor=none;" vertex="1" parent="1">
          <mxGeometry x="707" y="150" width="80" height="40" as="geometry" />
        </mxCell>
        <mxCell id="oH1ORaNsAKhIHo1-pU7s-2" value="Legend" style="text;html=1;align=left;verticalAlign=middle;resizable=0;points=[];autosize=1;strokeColor=none;fillColor=none;" vertex="1" parent="1">
          <mxGeometry x="520" y="20" width="60" height="30" as="geometry" />
        </mxCell>
      </root>
    </mxGraphModel>
  </diagram>
  <diagram id="nU_txP14GTgyFG9-OvW_" name="Directory tree">
    <mxGraphModel dx="1469" dy="886" grid="1" gridSize="10" guides="1" tooltips="1" connect="1" arrows="1" fold="1" page="1" pageScale="1" pageWidth="827" pageHeight="1169" math="0" shadow="0">
      <root>
        <mxCell id="0" />
        <mxCell id="1" parent="0" />
        <mxCell id="uH5eEjlJHPcHgXeVD_R1-2" value="&lt;pre class=&quot;CodeBlock-module__code--KUcqT&quot; tabindex=&quot;0&quot; style=&quot;box-sizing: border-box; font-family: var(--fontStack-monospace, ui-monospace, SFMono-Regular, SF Mono, Menlo, Consolas, Liberation Mono, monospace); outline: none; tab-size: var(--tab-size-preference); overflow-wrap: normal; overflow: auto; line-height: 1.45; margin: 0px !important; padding: var(--base-size-16) var(--base-size-24) !important; background: none !important; border-radius: 0px !important;&quot;&gt;&lt;code class=&quot;&quot; style=&quot;box-sizing: border-box; font-family: var(--fontStack-monospace, ui-monospace, SFMono-Regular, SF Mono, Menlo, Consolas, Liberation Mono, monospace); tab-size: var(--tab-size-preference); padding: 0px; margin: 0px; background: rgba(0, 0, 0, 0); border-radius: 6px; word-break: normal; border: 0px; display: inline; overflow: visible; line-height: inherit; overflow-wrap: normal;&quot;&gt;&lt;font&gt;microConsole/&lt;span style=&quot;white-space: pre;&quot;&gt;&#x9;&lt;/span&gt;&lt;span style=&quot;white-space: pre;&quot;&gt;&#x9;&lt;span style=&quot;white-space: pre;&quot;&gt;&#x9;&lt;/span&gt;&lt;span style=&quot;white-space: pre;&quot;&gt;&#x9;&lt;/span&gt;&lt;/span&gt;# Project root&lt;/font&gt;&lt;/code&gt;&lt;/pre&gt;&lt;pre class=&quot;CodeBlock-module__code--KUcqT&quot; tabindex=&quot;0&quot; style=&quot;box-sizing: border-box; font-family: var(--fontStack-monospace, ui-monospace, SFMono-Regular, SF Mono, Menlo, Consolas, Liberation Mono, monospace); outline: none; tab-size: var(--tab-size-preference); overflow-wrap: normal; overflow: auto; line-height: 1.45; margin: 0px !important; padding: var(--base-size-16) var(--base-size-24) !important; background: none !important; border-radius: 0px !important;&quot;&gt;&lt;code class=&quot;&quot; style=&quot;box-sizing: border-box; font-family: var(--fontStack-monospace, ui-monospace, SFMono-Regular, SF Mono, Menlo, Consolas, Liberation Mono, monospace); tab-size: var(--tab-size-preference); padding: 0px; margin: 0px; background: rgba(0, 0, 0, 0); border-radius: 6px; word-break: normal; border: 0px; display: inline; overflow: visible; line-height: inherit; overflow-wrap: normal;&quot;&gt;&lt;font&gt;├── .git/&lt;span style=&quot;white-space: pre;&quot;&gt;&#x9;&lt;/span&gt;&lt;span style=&quot;white-space: pre;&quot;&gt;&#x9;&lt;/span&gt;&lt;span style=&quot;white-space: pre;&quot;&gt;&#x9;&lt;/span&gt;&lt;span style=&quot;white-space: pre;&quot;&gt;&#x9;&lt;/span&gt;&lt;/font&gt;&lt;/code&gt;# Git repository directory&lt;/pre&gt;&lt;pre class=&quot;CodeBlock-module__code--KUcqT&quot; tabindex=&quot;0&quot; style=&quot;box-sizing: border-box; font-family: var(--fontStack-monospace, ui-monospace, SFMono-Regular, SF Mono, Menlo, Consolas, Liberation Mono, monospace); outline: none; tab-size: var(--tab-size-preference); overflow-wrap: normal; overflow: auto; line-height: 1.45; margin: 0px !important; padding: var(--base-size-16) var(--base-size-24) !important; background: none !important; border-radius: 0px !important;&quot;&gt;&lt;code class=&quot;&quot; style=&quot;box-sizing: border-box; font-family: var(--fontStack-monospace, ui-monospace, SFMono-Regular, SF Mono, Menlo, Consolas, Liberation Mono, monospace); tab-size: var(--tab-size-preference); padding: 0px; margin: 0px; background: rgba(0, 0, 0, 0); border-radius: 6px; word-break: normal; border: 0px; display: inline; overflow: visible; line-height: inherit; overflow-wrap: normal;&quot;&gt;&lt;font&gt;├── GameBoyEmulator/&lt;span style=&quot;white-space: pre;&quot;&gt;&#x9;&lt;/span&gt;&lt;span style=&quot;white-space: pre;&quot;&gt;&#x9;&lt;/span&gt;&lt;span style=&quot;white-space: pre;&quot;&gt;&#x9;&lt;/span&gt;&lt;/font&gt;&lt;/code&gt;# Project developed root&lt;/pre&gt;&lt;pre class=&quot;CodeBlock-module__code--KUcqT&quot; tabindex=&quot;0&quot; style=&quot;box-sizing: border-box; outline: none; tab-size: var(--tab-size-preference); overflow-wrap: normal; overflow: auto; line-height: 1.45; margin: 0px !important; padding: var(--base-size-16) var(--base-size-24) !important; background: none !important; border-radius: 0px !important;&quot;&gt;&lt;pre class=&quot;CodeBlock-module__code--KUcqT&quot; tabindex=&quot;0&quot; style=&quot;font-family: ui-monospace, SFMono-Regular, &amp;quot;SF Mono&amp;quot;, Menlo, Consolas, &amp;quot;Liberation Mono&amp;quot;, monospace; box-sizing: border-box; outline: none; tab-size: 8; overflow-wrap: normal; overflow: auto; line-height: 1.45; background: none !important; margin: 0px !important; padding: 0px !important; border-radius: 0px !important;&quot;&gt;&lt;code class=&quot;&quot; style=&quot;box-sizing: border-box; font-family: ui-monospace, SFMono-Regular, &amp;quot;SF Mono&amp;quot;, Menlo, Consolas, &amp;quot;Liberation Mono&amp;quot;, monospace; tab-size: 8; padding: 0px; margin: 0px; background: rgba(0, 0, 0, 0); border-radius: 6px; word-break: normal; border: 0px; display: inline; overflow: visible; line-height: inherit; overflow-wrap: normal;&quot;&gt;│   &lt;/code&gt;├── .metadata/&lt;span style=&quot;white-space: pre;&quot;&gt;&#x9;&lt;/span&gt;&lt;span style=&quot;white-space: pre;&quot;&gt;&#x9;&lt;/span&gt;&lt;span style=&quot;white-space: pre;&quot;&gt;&#x9;&lt;/span&gt;# Eclipse property file&lt;/pre&gt;&lt;pre class=&quot;CodeBlock-module__code--KUcqT&quot; tabindex=&quot;0&quot; style=&quot;font-family: ui-monospace, SFMono-Regular, &amp;quot;SF Mono&amp;quot;, Menlo, Consolas, &amp;quot;Liberation Mono&amp;quot;, monospace; box-sizing: border-box; outline: none; tab-size: 8; overflow-wrap: normal; overflow: auto; line-height: 1.45; background: none !important; margin: 0px !important; padding: 0px !important; border-radius: 0px !important;&quot;&gt;&lt;code class=&quot;&quot; style=&quot;box-sizing: border-box; font-family: ui-monospace, SFMono-Regular, &amp;quot;SF Mono&amp;quot;, Menlo, Consolas, &amp;quot;Liberation Mono&amp;quot;, monospace; tab-size: 8; padding: 0px; margin: 0px; background: rgba(0, 0, 0, 0); border-radius: 6px; word-break: normal; border: 0px; display: inline; overflow: visible; line-height: inherit; overflow-wrap: normal;&quot;&gt;│   &lt;/code&gt;├── code/&lt;span style=&quot;white-space: pre;&quot;&gt;&#x9;&lt;/span&gt;&lt;span style=&quot;white-space: pre;&quot;&gt;&#x9;&lt;/span&gt;&lt;span style=&quot;white-space: pre;&quot;&gt;&#x9;&lt;/span&gt;&lt;span style=&quot;white-space: pre;&quot;&gt;&#x9;&lt;/span&gt;# Project code developed&lt;/pre&gt;&lt;pre class=&quot;CodeBlock-module__code--KUcqT&quot; tabindex=&quot;0&quot; style=&quot;font-family: ui-monospace, SFMono-Regular, &amp;quot;SF Mono&amp;quot;, Menlo, Consolas, &amp;quot;Liberation Mono&amp;quot;, monospace; box-sizing: border-box; outline: none; tab-size: 8; overflow-wrap: normal; overflow: auto; line-height: 1.45; background: none !important; margin: 0px !important; padding: 0px !important; border-radius: 0px !important;&quot;&gt;|   |   |── .settings&lt;span style=&quot;white-space: pre;&quot;&gt;&#x9;&lt;/span&gt;&lt;span style=&quot;white-space: pre;&quot;&gt;&#x9;&lt;/span&gt;&lt;span style=&quot;white-space: pre;&quot;&gt;&#x9;&lt;/span&gt;# &lt;/pre&gt;&lt;pre class=&quot;CodeBlock-module__code--KUcqT&quot; tabindex=&quot;0&quot; style=&quot;box-sizing: border-box; outline: none; tab-size: 8; overflow-wrap: normal; overflow: auto; line-height: 1.45; background: none !important; margin: 0px !important; padding: 0px !important; border-radius: 0px !important;&quot;&gt;&lt;pre style=&quot;font-family: ui-monospace, SFMono-Regular, &amp;quot;SF Mono&amp;quot;, Menlo, Consolas, &amp;quot;Liberation Mono&amp;quot;, monospace; box-sizing: border-box; outline: none; tab-size: 8; overflow-wrap: normal; overflow: auto; line-height: 1.45; background: none !important; margin: 0px !important; padding: 0px !important; border-radius: 0px !important;&quot; class=&quot;CodeBlock-module__code--KUcqT&quot; tabindex=&quot;0&quot;&gt;|   |   |── app&lt;span style=&quot;white-space: pre;&quot;&gt;&#x9;&lt;/span&gt;&lt;span style=&quot;white-space: pre;&quot;&gt;&#x9;&lt;/span&gt;&lt;span style=&quot;white-space: pre;&quot;&gt;&#x9;&lt;/span&gt;&lt;span style=&quot;white-space: pre;&quot;&gt;&#x9;&lt;/span&gt;# &lt;/pre&gt;&lt;pre style=&quot;font-family: ui-monospace, SFMono-Regular, &amp;quot;SF Mono&amp;quot;, Menlo, Consolas, &amp;quot;Liberation Mono&amp;quot;, monospace; box-sizing: border-box; outline: none; tab-size: 8; overflow-wrap: normal; overflow: auto; line-height: 1.45; background: none !important; margin: 0px !important; padding: 0px !important; border-radius: 0px !important;&quot; class=&quot;CodeBlock-module__code--KUcqT&quot; tabindex=&quot;0&quot;&gt;|   |   |   |── inc&lt;span style=&quot;white-space: pre;&quot;&gt;&#x9;&lt;/span&gt;&lt;span style=&quot;white-space: pre;&quot;&gt;&#x9;&lt;/span&gt;&lt;span style=&quot;white-space: pre;&quot;&gt;&#x9;&lt;/span&gt;# &lt;/pre&gt;&lt;pre style=&quot;font-family: ui-monospace, SFMono-Regular, &amp;quot;SF Mono&amp;quot;, Menlo, Consolas, &amp;quot;Liberation Mono&amp;quot;, monospace; box-sizing: border-box; outline: none; tab-size: 8; overflow-wrap: normal; overflow: auto; line-height: 1.45; background: none !important; margin: 0px !important; padding: 0px !important; border-radius: 0px !important;&quot; class=&quot;CodeBlock-module__code--KUcqT&quot; tabindex=&quot;0&quot;&gt;|   |   |   └── src&lt;span style=&quot;white-space: pre;&quot;&gt;&#x9;&lt;/span&gt;&lt;span style=&quot;white-space: pre;&quot;&gt;&#x9;&lt;/span&gt;&lt;span style=&quot;white-space: pre;&quot;&gt;&#x9;&lt;/span&gt;# &lt;/pre&gt;&lt;pre style=&quot;font-family: ui-monospace, SFMono-Regular, &amp;quot;SF Mono&amp;quot;, Menlo, Consolas, &amp;quot;Liberation Mono&amp;quot;, monospace; box-sizing: border-box; outline: none; tab-size: 8; overflow-wrap: normal; overflow: auto; line-height: 1.45; background: none !important; margin: 0px !important; padding: 0px !important; border-radius: 0px !important;&quot; class=&quot;CodeBlock-module__code--KUcqT&quot; tabindex=&quot;0&quot;&gt;|   |   |── drivers&lt;span style=&quot;white-space: pre;&quot;&gt;&#x9;&lt;/span&gt;&lt;span style=&quot;white-space: pre;&quot;&gt;&#x9;&lt;/span&gt;&lt;span style=&quot;white-space: pre;&quot;&gt;&#x9;&lt;/span&gt;# &lt;/pre&gt;&lt;pre style=&quot;font-family: ui-monospace, SFMono-Regular, &amp;quot;SF Mono&amp;quot;, Menlo, Consolas, &amp;quot;Liberation Mono&amp;quot;, monospace; box-sizing: border-box; outline: none; tab-size: 8; overflow-wrap: normal; overflow: auto; line-height: 1.45; background: none !important; margin: 0px !important; padding: 0px !important; border-radius: 0px !important;&quot; class=&quot;CodeBlock-module__code--KUcqT&quot; tabindex=&quot;0&quot;&gt;|   |   |   |── windows&lt;span style=&quot;white-space: pre;&quot;&gt;&#x9;&lt;/span&gt;&lt;span style=&quot;white-space: pre;&quot;&gt;&#x9;&lt;/span&gt;&lt;span style=&quot;white-space: pre;&quot;&gt;&#x9;&lt;/span&gt;# &lt;/pre&gt;&lt;pre style=&quot;font-family: ui-monospace, SFMono-Regular, &amp;quot;SF Mono&amp;quot;, Menlo, Consolas, &amp;quot;Liberation Mono&amp;quot;, monospace; box-sizing: border-box; outline: none; tab-size: 8; overflow-wrap: normal; overflow: auto; line-height: 1.45; background: none !important; margin: 0px !important; padding: 0px !important; border-radius: 0px !important;&quot; class=&quot;CodeBlock-module__code--KUcqT&quot; tabindex=&quot;0&quot;&gt;|   |   |   └── stm32f401re&lt;span style=&quot;white-space: pre;&quot;&gt;&#x9;&lt;/span&gt;&lt;span style=&quot;white-space: pre;&quot;&gt;&#x9;&lt;/span&gt;# &lt;/pre&gt;&lt;pre style=&quot;font-family: ui-monospace, SFMono-Regular, &amp;quot;SF Mono&amp;quot;, Menlo, Consolas, &amp;quot;Liberation Mono&amp;quot;, monospace; box-sizing: border-box; outline: none; tab-size: 8; overflow-wrap: normal; overflow: auto; line-height: 1.45; background: none !important; margin: 0px !important; padding: 0px !important; border-radius: 0px !important;&quot; class=&quot;CodeBlock-module__code--KUcqT&quot; tabindex=&quot;0&quot;&gt;|   |   |── lib&lt;span style=&quot;white-space: pre;&quot;&gt;&#x9;&lt;/span&gt;&lt;span style=&quot;white-space: pre;&quot;&gt;&#x9;&lt;/span&gt;&lt;span style=&quot;white-space: pre;&quot;&gt;&#x9;&lt;/span&gt;&lt;span style=&quot;white-space: pre;&quot;&gt;&#x9;&lt;/span&gt;# &lt;/pre&gt;&lt;pre style=&quot;font-family: ui-monospace, SFMono-Regular, &amp;quot;SF Mono&amp;quot;, Menlo, Consolas, &amp;quot;Liberation Mono&amp;quot;, monospace; box-sizing: border-box; outline: none; tab-size: 8; overflow-wrap: normal; overflow: auto; line-height: 1.45; background: none !important; margin: 0px !important; padding: 0px !important; border-radius: 0px !important;&quot; class=&quot;CodeBlock-module__code--KUcqT&quot; tabindex=&quot;0&quot;&gt;|   |   |   └── sdl&lt;span style=&quot;white-space: pre;&quot;&gt;&#x9;&lt;/span&gt;&lt;span style=&quot;white-space: pre;&quot;&gt;&#x9;&lt;/span&gt;&lt;span style=&quot;white-space: pre;&quot;&gt;&#x9;&lt;/span&gt;# &lt;/pre&gt;&lt;pre style=&quot;font-family: ui-monospace, SFMono-Regular, &amp;quot;SF Mono&amp;quot;, Menlo, Consolas, &amp;quot;Liberation Mono&amp;quot;, monospace; box-sizing: border-box; outline: none; tab-size: 8; overflow-wrap: normal; overflow: auto; line-height: 1.45; background: none !important; margin: 0px !important; padding: 0px !important; border-radius: 0px !important;&quot; class=&quot;CodeBlock-module__code--KUcqT&quot; tabindex=&quot;0&quot;&gt;|   |   |── linker&lt;span style=&quot;white-space: pre;&quot;&gt;&#x9;&lt;/span&gt;&lt;span style=&quot;white-space: pre;&quot;&gt;&#x9;&lt;/span&gt;&lt;span style=&quot;white-space: pre;&quot;&gt;&#x9;&lt;/span&gt;# &lt;/pre&gt;&lt;pre style=&quot;box-sizing: border-box; outline: none; tab-size: 8; overflow-wrap: normal; overflow: auto; line-height: 1.45; background: none !important; margin: 0px !important; padding: 0px !important; border-radius: 0px !important;&quot; class=&quot;CodeBlock-module__code--KUcqT&quot; tabindex=&quot;0&quot;&gt;|   |   |   └── &lt;font face=&quot;ui-monospace, SFMono-Regular, SF Mono, Menlo, Consolas, Liberation Mono, monospace&quot;&gt;stm32f401re.ld&lt;span style=&quot;white-space: pre;&quot;&gt;&#x9;&lt;/span&gt;&lt;span style=&quot;white-space: pre;&quot;&gt;&#x9;&lt;/span&gt;&lt;/font&gt;# &lt;/pre&gt;&lt;pre style=&quot;font-family: ui-monospace, SFMono-Regular, &amp;quot;SF Mono&amp;quot;, Menlo, Consolas, &amp;quot;Liberation Mono&amp;quot;, monospace; box-sizing: border-box; outline: none; tab-size: 8; overflow-wrap: normal; overflow: auto; line-height: 1.45; background: none !important; margin: 0px !important; padding: 0px !important; border-radius: 0px !important;&quot; class=&quot;CodeBlock-module__code--KUcqT&quot; tabindex=&quot;0&quot;&gt;|   |   |── tools&lt;span style=&quot;white-space: pre;&quot;&gt;&#x9;&lt;/span&gt;&lt;span style=&quot;white-space: pre;&quot;&gt;&#x9;&lt;/span&gt;&lt;span style=&quot;white-space: pre;&quot;&gt;&#x9;&lt;/span&gt;# &lt;/pre&gt;&lt;pre style=&quot;font-family: ui-monospace, SFMono-Regular, &amp;quot;SF Mono&amp;quot;, Menlo, Consolas, &amp;quot;Liberation Mono&amp;quot;, monospace; box-sizing: border-box; outline: none; tab-size: 8; overflow-wrap: normal; overflow: auto; line-height: 1.45; background: none !important; margin: 0px !important; padding: 0px !important; border-radius: 0px !important;&quot; class=&quot;CodeBlock-module__code--KUcqT&quot; tabindex=&quot;0&quot;&gt;&lt;pre style=&quot;box-sizing: border-box; outline: none; tab-size: 8; overflow-wrap: normal; overflow: auto; line-height: 1.45; background: none !important; margin: 0px !important; padding: 0px !important; border-radius: 0px !important;&quot; class=&quot;CodeBlock-module__code--KUcqT&quot; tabindex=&quot;0&quot;&gt;|   |   |   └── memoryUsage.exe&lt;span style=&quot;white-space: pre;&quot;&gt;&#x9;&lt;/span&gt;&lt;span style=&quot;white-space: pre;&quot;&gt;&#x9;&lt;/span&gt;# &lt;/pre&gt;&lt;/pre&gt;&lt;pre style=&quot;font-family: ui-monospace, SFMono-Regular, &amp;quot;SF Mono&amp;quot;, Menlo, Consolas, &amp;quot;Liberation Mono&amp;quot;, monospace; box-sizing: border-box; outline: none; tab-size: 8; overflow-wrap: normal; overflow: auto; line-height: 1.45; background: none !important; margin: 0px !important; padding: 0px !important; border-radius: 0px !important;&quot; class=&quot;CodeBlock-module__code--KUcqT&quot; tabindex=&quot;0&quot;&gt;|   |   |── .cproject&lt;span style=&quot;white-space: pre;&quot;&gt;&#x9;&lt;/span&gt;&lt;span style=&quot;white-space: pre;&quot;&gt;&#x9;&lt;span style=&quot;white-space: pre;&quot;&gt;&#x9;&lt;/span&gt;&lt;/span&gt;# &#x9;&lt;/pre&gt;&lt;pre style=&quot;font-family: ui-monospace, SFMono-Regular, &amp;quot;SF Mono&amp;quot;, Menlo, Consolas, &amp;quot;Liberation Mono&amp;quot;, monospace; box-sizing: border-box; outline: none; tab-size: 8; overflow-wrap: normal; overflow: auto; line-height: 1.45; background: none !important; margin: 0px !important; padding: 0px !important; border-radius: 0px !important;&quot; class=&quot;CodeBlock-module__code--KUcqT&quot; tabindex=&quot;0&quot;&gt;|   |   |── .project&lt;span style=&quot;white-space: pre;&quot;&gt;&#x9;&lt;/span&gt;&lt;span style=&quot;white-space: pre;&quot;&gt;&#x9;&lt;/span&gt;&lt;span style=&quot;white-space: pre;&quot;&gt;&#x9;&lt;/span&gt;# &lt;/pre&gt;&lt;pre style=&quot;font-family: ui-monospace, SFMono-Regular, &amp;quot;SF Mono&amp;quot;, Menlo, Consolas, &amp;quot;Liberation Mono&amp;quot;, monospace; box-sizing: border-box; outline: none; tab-size: 8; overflow-wrap: normal; overflow: auto; line-height: 1.45; background: none !important; margin: 0px !important; padding: 0px !important; border-radius: 0px !important;&quot; class=&quot;CodeBlock-module__code--KUcqT&quot; tabindex=&quot;0&quot;&gt;|   |   └── makefile&lt;span style=&quot;white-space: pre;&quot;&gt;&#x9;&lt;/span&gt;&lt;span style=&quot;white-space: pre;&quot;&gt;&#x9;&lt;/span&gt;&lt;span style=&quot;white-space: pre;&quot;&gt;&#x9;&lt;/span&gt;# &lt;/pre&gt;&lt;/pre&gt;&lt;pre class=&quot;CodeBlock-module__code--KUcqT&quot; tabindex=&quot;0&quot; style=&quot;font-family: ui-monospace, SFMono-Regular, &amp;quot;SF Mono&amp;quot;, Menlo, Consolas, &amp;quot;Liberation Mono&amp;quot;, monospace; box-sizing: border-box; outline: none; tab-size: 8; overflow-wrap: normal; overflow: auto; line-height: 1.45; background: none !important; margin: 0px !important; padding: 0px !important; border-radius: 0px !important;&quot;&gt;&lt;code class=&quot;&quot; style=&quot;box-sizing: border-box; font-family: ui-monospace, SFMono-Regular, &amp;quot;SF Mono&amp;quot;, Menlo, Consolas, &amp;quot;Liberation Mono&amp;quot;, monospace; tab-size: 8; padding: 0px; margin: 0px; background: rgba(0, 0, 0, 0); border-radius: 6px; word-break: normal; border: 0px; display: inline; overflow: visible; line-height: inherit; overflow-wrap: normal;&quot;&gt;│   &lt;/code&gt;├── docs/&lt;span style=&quot;white-space: pre;&quot;&gt;&#x9;&lt;/span&gt;&lt;span style=&quot;white-space: pre;&quot;&gt;&#x9;&lt;/span&gt;&lt;span style=&quot;white-space: pre;&quot;&gt;&#x9;&lt;/span&gt;&lt;span style=&quot;white-space: pre;&quot;&gt;&#x9;&lt;/span&gt;# Project documentation root&lt;/pre&gt;&lt;pre class=&quot;CodeBlock-module__code--KUcqT&quot; tabindex=&quot;0&quot; style=&quot;font-family: ui-monospace, SFMono-Regular, &amp;quot;SF Mono&amp;quot;, Menlo, Consolas, &amp;quot;Liberation Mono&amp;quot;, monospace; box-sizing: border-box; outline: none; tab-size: 8; overflow-wrap: normal; overflow: auto; line-height: 1.45; background: none !important; margin: 0px !important; padding: 0px !important; border-radius: 0px !important;&quot;&gt;&lt;code class=&quot;&quot; style=&quot;box-sizing: border-box; font-family: ui-monospace, SFMono-Regular, &amp;quot;SF Mono&amp;quot;, Menlo, Consolas, &amp;quot;Liberation Mono&amp;quot;, monospace; tab-size: 8; padding: 0px; margin: 0px; background: rgba(0, 0, 0, 0); border-radius: 6px; word-break: normal; border: 0px; display: inline; overflow: visible; line-height: inherit; overflow-wrap: normal;&quot;&gt;│   &lt;/code&gt;└── roms/&lt;span style=&quot;white-space: pre;&quot;&gt;&#x9;&lt;/span&gt;&lt;span style=&quot;white-space: pre;&quot;&gt;&#x9;&lt;/span&gt;&lt;span style=&quot;white-space: pre;&quot;&gt;&#x9;&lt;/span&gt;&lt;span style=&quot;white-space: pre;&quot;&gt;&#x9;&lt;/span&gt;# GameBoy roms for test&lt;/pre&gt;&lt;/pre&gt;&lt;pre class=&quot;CodeBlock-module__code--KUcqT&quot; tabindex=&quot;0&quot; style=&quot;box-sizing: border-box; font-family: var(--fontStack-monospace, ui-monospace, SFMono-Regular, SF Mono, Menlo, Consolas, Liberation Mono, monospace); outline: none; tab-size: var(--tab-size-preference); overflow-wrap: normal; overflow: auto; line-height: 1.45; margin: 0px !important; padding: var(--base-size-16) var(--base-size-24) !important; background: none !important; border-radius: 0px !important;&quot;&gt;&lt;code class=&quot;&quot; style=&quot;box-sizing: border-box; font-family: var(--fontStack-monospace, ui-monospace, SFMono-Regular, SF Mono, Menlo, Consolas, Liberation Mono, monospace); tab-size: var(--tab-size-preference); padding: 0px; margin: 0px; background: rgba(0, 0, 0, 0); border-radius: 6px; word-break: normal; border: 0px; display: inline; overflow: visible; line-height: inherit; overflow-wrap: normal;&quot;&gt;&lt;font&gt;├── Reference/&lt;span style=&quot;white-space: pre;&quot;&gt;&#x9;&lt;/span&gt;&lt;span style=&quot;white-space: pre;&quot;&gt;&#x9;&lt;/span&gt;&lt;span style=&quot;white-space: pre;&quot;&gt;&#x9;&lt;/span&gt;&lt;span style=&quot;white-space: pre;&quot;&gt;&#x9;&lt;/span&gt;&lt;/font&gt;&lt;/code&gt;# Reference project root&lt;/pre&gt;&lt;pre class=&quot;CodeBlock-module__code--KUcqT&quot; tabindex=&quot;0&quot; style=&quot;box-sizing: border-box; font-family: var(--fontStack-monospace, ui-monospace, SFMono-Regular, SF Mono, Menlo, Consolas, Liberation Mono, monospace); outline: none; tab-size: var(--tab-size-preference); overflow-wrap: normal; overflow: auto; line-height: 1.45; margin: 0px !important; padding: var(--base-size-16) var(--base-size-24) !important; background: none !important; border-radius: 0px !important;&quot;&gt;&lt;pre class=&quot;CodeBlock-module__code--KUcqT&quot; tabindex=&quot;0&quot; style=&quot;box-sizing: border-box; font-family: ui-monospace, SFMono-Regular, &amp;quot;SF Mono&amp;quot;, Menlo, Consolas, &amp;quot;Liberation Mono&amp;quot;, monospace; outline: none; tab-size: 8; overflow-wrap: normal; overflow: auto; line-height: 1.45; background: none !important; margin: 0px !important; padding: 0px !important; border-radius: 0px !important;&quot;&gt;&lt;code class=&quot;&quot; style=&quot;box-sizing: border-box; font-family: ui-monospace, SFMono-Regular, &amp;quot;SF Mono&amp;quot;, Menlo, Consolas, &amp;quot;Liberation Mono&amp;quot;, monospace; tab-size: 8; padding: 0px; margin: 0px; background: rgba(0, 0, 0, 0); border-radius: 6px; word-break: normal; border: 0px; display: inline; overflow: visible; line-height: inherit; overflow-wrap: normal;&quot;&gt;│   &lt;/code&gt;└── reference tree/&lt;span style=&quot;white-space: pre;&quot;&gt;&#x9;&lt;/span&gt;&lt;span style=&quot;white-space: pre;&quot;&gt;&#x9;&lt;/span&gt;&lt;span style=&quot;white-space: pre;&quot;&gt;&#x9;&lt;/span&gt;# Reference project tree strcture&lt;/pre&gt;&lt;/pre&gt;&lt;pre class=&quot;CodeBlock-module__code--KUcqT&quot; tabindex=&quot;0&quot; style=&quot;box-sizing: border-box; font-family: var(--fontStack-monospace, ui-monospace, SFMono-Regular, SF Mono, Menlo, Consolas, Liberation Mono, monospace); outline: none; tab-size: var(--tab-size-preference); overflow-wrap: normal; overflow: auto; line-height: 1.45; margin: 0px !important; padding: var(--base-size-16) var(--base-size-24) !important; background: none !important; border-radius: 0px !important;&quot;&gt;&lt;code class=&quot;&quot; style=&quot;box-sizing: border-box; font-family: var(--fontStack-monospace, ui-monospace, SFMono-Regular, SF Mono, Menlo, Consolas, Liberation Mono, monospace); tab-size: var(--tab-size-preference); padding: 0px; margin: 0px; background: rgba(0, 0, 0, 0); border-radius: 6px; word-break: normal; border: 0px; display: inline; overflow: visible; line-height: inherit; overflow-wrap: normal;&quot;&gt;&lt;font&gt;&lt;pre class=&quot;CodeBlock-module__code--KUcqT&quot; tabindex=&quot;0&quot; style=&quot;box-sizing: border-box; font-family: ui-monospace, SFMono-Regular, &amp;quot;SF Mono&amp;quot;, Menlo, Consolas, &amp;quot;Liberation Mono&amp;quot;, monospace; outline: none; tab-size: 8; overflow-wrap: normal; overflow: auto; line-height: 1.45; background: none !important; margin: 0px !important; padding: 0px !important; border-radius: 0px !important;&quot;&gt;&lt;code class=&quot;&quot; style=&quot;box-sizing: border-box; font-family: ui-monospace, SFMono-Regular, &amp;quot;SF Mono&amp;quot;, Menlo, Consolas, &amp;quot;Liberation Mono&amp;quot;, monospace; tab-size: 8; padding: 0px; margin: 0px; background: rgba(0, 0, 0, 0); border-radius: 6px; word-break: normal; border: 0px; display: inline; overflow: visible; line-height: inherit; overflow-wrap: normal;&quot;&gt;├── .&lt;/code&gt;gitignore/&lt;span style=&quot;white-space: pre;&quot;&gt;&#x9;&lt;/span&gt;&lt;span style=&quot;white-space: pre;&quot;&gt;&#x9;&lt;/span&gt;&lt;span style=&quot;white-space: pre;&quot;&gt;&#x9;&lt;/span&gt;&lt;span style=&quot;white-space: pre;&quot;&gt;&#x9;&lt;/span&gt;# Git ignore files list&lt;/pre&gt;&lt;pre class=&quot;CodeBlock-module__code--KUcqT&quot; tabindex=&quot;0&quot; style=&quot;box-sizing: border-box; font-family: ui-monospace, SFMono-Regular, &amp;quot;SF Mono&amp;quot;, Menlo, Consolas, &amp;quot;Liberation Mono&amp;quot;, monospace; outline: none; tab-size: 8; overflow-wrap: normal; overflow: auto; line-height: 1.45; background: none !important; margin: 0px !important; padding: 0px !important; border-radius: 0px !important;&quot;&gt;&lt;code class=&quot;&quot; style=&quot;box-sizing: border-box; font-family: ui-monospace, SFMono-Regular, &amp;quot;SF Mono&amp;quot;, Menlo, Consolas, &amp;quot;Liberation Mono&amp;quot;, monospace; tab-size: 8; padding: 0px; margin: 0px; background: rgba(0, 0, 0, 0); border-radius: 6px; word-break: normal; border: 0px; display: inline; overflow: visible; line-height: inherit; overflow-wrap: normal;&quot;&gt;└── README.md/&lt;span style=&quot;white-space: pre;&quot;&gt;&#x9;&lt;/span&gt;&lt;span style=&quot;white-space: pre;&quot;&gt;&#x9;&lt;/span&gt;&lt;span style=&quot;white-space: pre;&quot;&gt;&#x9;&lt;/span&gt;&lt;span style=&quot;white-space: pre;&quot;&gt;&#x9;&lt;/span&gt;&lt;/code&gt;# GitHub description&lt;/pre&gt;&lt;/font&gt;&lt;/code&gt;&lt;/pre&gt;" style="text;html=1;align=left;verticalAlign=top;resizable=0;points=[];autosize=1;strokeColor=none;fillColor=none;fontSize=19;horizontal=1;fontColor=default;" vertex="1" parent="1">
          <mxGeometry width="790" height="760" as="geometry" />
        </mxCell>
      </root>
    </mxGraphModel>
  </diagram>
  <diagram id="qdL6WMSa6YlfV77u6gTU" name="Makefile">
    <mxGraphModel dx="1028" dy="620" grid="1" gridSize="10" guides="1" tooltips="1" connect="1" arrows="1" fold="1" page="1" pageScale="1" pageWidth="827" pageHeight="1169" math="0" shadow="0">
      <root>
        <mxCell id="0" />
        <mxCell id="1" parent="0" />
      </root>
    </mxGraphModel>
  </diagram>
</mxfile>
